<svg xmlns="http://www.w3.org/2000/svg" width="126" height="46" viewBox="0 0 126 46">
    <defs>
        <style>
            .cls-1{fill:#fff}
        </style>
    </defs>
    <g id="NV-logo" transform="translate(656.324 -112.602)">
        <g id="그룹_1" transform="translate(-608.324 124.602)">
            <path id="패스_1" d="M-574.642 132.486h-5.219v13.671h5.219c4.292 0 7.172-2.871 7.172-6.836s-2.88-6.835-7.172-6.835zm-.039 13.066h-4.519v-12.46h4.523c4 0 6.554 2.617 6.554 6.23s-2.556 6.23-6.558 6.23z" class="cls-1" transform="translate(579.861 -132.408)"/>
            <path id="패스_2" d="M-548.331 132.486L-554 145.3l-5.684-12.812h-.735l6.07 13.671h.638l6.07-13.671z" class="cls-1" transform="translate(573.623 -132.407)"/>
            <path id="사각형_2" d="M0 0H0.657V13.671H0z" class="cls-1" transform="translate(28.286 0.078)"/>
            <path id="패스_3" d="M-531.068 135.887c0-1.6 1.256-2.93 4-2.93a6.387 6.387 0 0 1 3.692 1.192l.29-.528a6.876 6.876 0 0 0-4-1.25c-3.228 0-4.62 1.68-4.62 3.516 0 5.058 8.525 2.461 8.525 6.836 0 1.581-1.257 2.89-4.1 2.89a6.137 6.137 0 0 1-4.466-1.777l-.348.468a6.562 6.562 0 0 0 4.832 1.895c3.267 0 4.717-1.64 4.717-3.5.004-4.957-8.522-2.418-8.522-6.812z" class="cls-1" transform="translate(564.545 -132.371)"/>
            <path id="사각형_3" d="M0 0H0.657V13.671H0z" class="cls-1" transform="translate(45.512 0.078)"/>
            <path id="패스_4" d="M-499.712 132.371a6.778 6.778 0 0 0-6.979 6.914 6.778 6.778 0 0 0 6.979 6.914 6.782 6.782 0 0 0 7-6.914 6.783 6.783 0 0 0-7-6.914zm0 13.222a6.171 6.171 0 0 1-6.321-6.308 6.171 6.171 0 0 1 6.321-6.308 6.176 6.176 0 0 1 6.341 6.308 6.176 6.176 0 0 1-6.341 6.308z" class="cls-1" transform="translate(556.388 -132.371)"/>
            <path id="패스_5" d="M-470.8 144.946l-9.607-12.461h-.541v13.671h.657V133.7l9.608 12.46h.541v-13.674h-.657z" class="cls-1" transform="translate(548.144 -132.407)"/>
            <path id="패스_6" d="M-552.76 165.4l-2.78-3.605h-.157v3.956h.19v-3.605l2.78 3.605h.157V161.8h-.19z" class="cls-1" transform="translate(572.119 -141.774)"/>
            <path id="패스_7" d="M-544.723 163.83h2.125v-.175h-2.125v-1.684h2.377v-.171h-2.567v3.956h2.645v-.175h-2.455z" class="cls-1" transform="translate(568.664 -141.774)"/>
            <path id="패스_8" d="M-536.352 161.971h1.438v3.78h.184v-3.78h1.438v-.171h-3.06z" class="cls-1" transform="translate(565.921 -141.774)"/>
            <path id="패스_9" d="M-523.222 165.48l-1.27-3.684h-.185l-1.275 3.679-1.236-3.679h-.2l1.337 3.956h.2l1.27-3.69 1.275 3.69h.19l1.337-3.956h-.19z" class="cls-1" transform="translate(563.045 -141.774)"/>
            <path id="패스_10" d="M-512.4 161.762a1.961 1.961 0 0 0-2.019 2 1.961 1.961 0 0 0 2.019 2 1.962 1.962 0 0 0 2.025-2 1.962 1.962 0 0 0-2.025-2zm0 3.826a1.786 1.786 0 0 1-1.829-1.825 1.786 1.786 0 0 1 1.829-1.826 1.787 1.787 0 0 1 1.834 1.826 1.787 1.787 0 0 1-1.834 1.825z" class="cls-1" transform="translate(558.891 -141.763)"/>
            <path id="패스_11" d="M-499.957 163.106c0-.825-.582-1.311-1.555-1.311h-1.359v3.956h.19v-1.328h1.169a2.5 2.5 0 0 0 .425-.033l.968 1.362h.224l-1-1.407a1.2 1.2 0 0 0 .938-1.239zm-1.543 1.142h-1.18v-2.277h1.18c.878 0 1.359.412 1.359 1.135s-.482 1.142-1.359 1.142z" class="cls-1" transform="translate(555.194 -141.774)"/>
            <path id="패스_12" d="M-489.9 161.8h-.235l-2.562 2.661V161.8h-.19v3.956h.19v-1.045l.934-.972 1.751 2.017h.235l-1.857-2.147z" class="cls-1" transform="translate(551.994 -141.774)"/>
        </g>
        <path id="패스_13" d="M-617.813 127.916a.321.321 0 0 0-.08-.133.313.313 0 0 0 0-.042.325.325 0 0 0-.167-.2l-25.74-14.866-.065-.038a.322.322 0 0 0-.139-.035h-12.027a.411.411 0 0 0-.055.011l-.025.009a.291.291 0 0 0-.06.031h-.011a.3.3 0 0 0-.055.05.323.323 0 0 0-.053.089c0 .009-.006.017-.009.025a.327.327 0 0 0-.018.1.347.347 0 0 0 0 .045l.039.283 6.149 44.464.051.373.031.223a.325.325 0 0 0 .078.163.185.185 0 0 0 .017.021.323.323 0 0 0 .15.084s.008.007.014.008a.144.144 0 0 1 .016 0 .334.334 0 0 0 .049.009h12.021a.32.32 0 0 0 .093-.02.3.3 0 0 0 .085-.047l.019-.014a.285.285 0 0 0 .037-.028.3.3 0 0 0 .027-.048L-618 128.407h.018v-.028l.131-.2a.327.327 0 0 0 .038-.263zm-22.414 14.8l-4.506 6.946-4.469-32.31 5.943 3.446zm.571-.88l-2.849-20.6 11.782 6.831zm.171 1.232l9.485-14.661h4.706l-13.371 20.612zm-3.906-23.235l-5.941-3.43-.413-2.989h5.467zm-1.169 31.074l4.5-6.958.823 5.954-4.506 6.946zm14.574-23.329a.318.318 0 0 0-.057-.037l-12.6-7.274-.912-6.6 23.987 13.908z" class="cls-1"/>
    </g>
</svg>
